<mxfile host="app.diagrams.net" agent="Mozilla/5.0 (Windows NT 10.0; Win64; x64) AppleWebKit/537.36 (KHTML, like Gecko) Chrome/121.0.0.0 Safari/537.36" version="26.0.6">
  <diagram name="Page-1" id="5f0bae14-7c28-e335-631c-24af17079c00">
    <mxGraphModel dx="1142" dy="748" grid="1" gridSize="10" guides="1" tooltips="1" connect="1" arrows="1" fold="1" page="1" pageScale="1" pageWidth="1100" pageHeight="850" background="none" math="0" shadow="0">
      <root>
        <mxCell id="0" />
        <mxCell id="1" parent="0" />
        <mxCell id="39150e848f15840c-1" value="SoC" style="verticalAlign=top;align=left;spacingTop=8;spacingLeft=2;spacingRight=12;shape=cube;size=10;direction=south;fontStyle=4;html=1;rounded=0;shadow=0;comic=0;labelBackgroundColor=none;strokeWidth=1;fontFamily=Verdana;fontSize=12;fillColor=#f5f5f5;fontColor=#333333;strokeColor=#666666;" parent="1" vertex="1">
          <mxGeometry x="260" y="50" width="480" height="340" as="geometry" />
        </mxCell>
        <mxCell id="39150e848f15840c-3" value="PC" style="verticalAlign=top;align=left;spacingTop=8;spacingLeft=2;spacingRight=12;shape=cube;size=10;direction=south;fontStyle=4;html=1;rounded=0;shadow=0;comic=0;labelBackgroundColor=none;strokeWidth=1;fontFamily=Verdana;fontSize=12;fillColor=#f9f7ed;strokeColor=#36393d;" parent="1" vertex="1">
          <mxGeometry x="255" y="400" width="490" height="220" as="geometry" />
        </mxCell>
        <mxCell id="39150e848f15840c-5" value="日志库" style="shape=component;align=left;spacingLeft=36;rounded=0;shadow=0;comic=0;labelBackgroundColor=none;strokeWidth=1;fontFamily=Helvetica;fontSize=12;html=1;fillColor=#9AC7BF;strokeColor=#82b366;" parent="1" vertex="1">
          <mxGeometry x="280" y="90" width="430" height="90" as="geometry" />
        </mxCell>
        <mxCell id="39150e848f15840c-4" value="«interface»&lt;br&gt;&lt;b&gt;日志库接口&lt;/b&gt;" style="html=1;rounded=0;shadow=0;comic=0;labelBackgroundColor=none;strokeWidth=1;fontFamily=Helvetica;fontSize=12;align=center;fillColor=#fff2cc;strokeColor=#d6b656;" parent="1" vertex="1">
          <mxGeometry x="385" y="105" width="260" height="60" as="geometry" />
        </mxCell>
        <mxCell id="Ox8djmFGP4lGGfaMFqNL-8" value="logcmd for arm" style="shape=module;align=center;spacingLeft=20;align=center;verticalAlign=middle;html=1;fontFamily=Helvetica;fillColor=#d5e8d4;strokeColor=#82b366;" parent="1" vertex="1">
          <mxGeometry x="280" y="310" width="110" height="50" as="geometry" />
        </mxCell>
        <mxCell id="gmoZkzMjBakNwVVPHtwE-18" style="edgeStyle=orthogonalEdgeStyle;rounded=0;orthogonalLoop=1;jettySize=auto;html=1;exitX=0;exitY=0.5;exitDx=0;exitDy=0;entryX=1;entryY=0.5;entryDx=0;entryDy=0;endArrow=classicThin;endFill=1;startArrow=diamondThin;startFill=0;strokeColor=#666666;" edge="1" parent="1" source="Ox8djmFGP4lGGfaMFqNL-20" target="Ox8djmFGP4lGGfaMFqNL-8">
          <mxGeometry relative="1" as="geometry" />
        </mxCell>
        <mxCell id="Ox8djmFGP4lGGfaMFqNL-20" value="logcmd&amp;nbsp;&lt;div&gt;(local client)&lt;/div&gt;" style="html=1;whiteSpace=wrap;fillColor=#dae8fc;strokeColor=#6c8ebf;fontFamily=Helvetica;" parent="1" vertex="1">
          <mxGeometry x="440" y="310" width="80" height="50" as="geometry" />
        </mxCell>
        <mxCell id="gmoZkzMjBakNwVVPHtwE-34" style="edgeStyle=orthogonalEdgeStyle;rounded=0;orthogonalLoop=1;jettySize=auto;html=1;exitX=1;exitY=0.25;exitDx=0;exitDy=0;entryX=0.5;entryY=1;entryDx=0;entryDy=0;startArrow=classicThin;startFill=1;endArrow=classicThin;endFill=1;" edge="1" parent="1" source="Ox8djmFGP4lGGfaMFqNL-29" target="Ox8djmFGP4lGGfaMFqNL-20">
          <mxGeometry relative="1" as="geometry" />
        </mxCell>
        <mxCell id="gmoZkzMjBakNwVVPHtwE-37" value="adb" style="edgeLabel;html=1;align=center;verticalAlign=middle;resizable=0;points=[];" vertex="1" connectable="0" parent="gmoZkzMjBakNwVVPHtwE-34">
          <mxGeometry x="-0.4791" y="1" relative="1" as="geometry">
            <mxPoint as="offset" />
          </mxGeometry>
        </mxCell>
        <mxCell id="gmoZkzMjBakNwVVPHtwE-35" style="edgeStyle=orthogonalEdgeStyle;rounded=0;orthogonalLoop=1;jettySize=auto;html=1;exitX=1;exitY=0.75;exitDx=0;exitDy=0;entryX=0.25;entryY=0;entryDx=0;entryDy=0;endArrow=classicThin;endFill=1;startArrow=classicThin;startFill=1;" edge="1" parent="1" source="Ox8djmFGP4lGGfaMFqNL-29" target="Ox8djmFGP4lGGfaMFqNL-30">
          <mxGeometry relative="1" as="geometry" />
        </mxCell>
        <mxCell id="Ox8djmFGP4lGGfaMFqNL-29" value="PC 终端" style="html=1;whiteSpace=wrap;fillColor=#dae8fc;strokeColor=#6c8ebf;" parent="1" vertex="1">
          <mxGeometry x="280" y="440" width="100" height="63.25" as="geometry" />
        </mxCell>
        <mxCell id="Ox8djmFGP4lGGfaMFqNL-30" value="logcmd for PC" style="shape=module;align=left;spacingLeft=20;align=center;verticalAlign=top;html=1;fontFamily=Helvetica;fillColor=#d5e8d4;strokeColor=#82b366;" parent="1" vertex="1">
          <mxGeometry x="401" y="508" width="320" height="90" as="geometry" />
        </mxCell>
        <mxCell id="Ox8djmFGP4lGGfaMFqNL-6" value="应用(server)A&lt;div&gt;端口A&lt;/div&gt;" style="html=1;whiteSpace=wrap;fillColor=#dae8fc;strokeColor=#6c8ebf;" parent="1" vertex="1">
          <mxGeometry x="385" y="200" width="70" height="50" as="geometry" />
        </mxCell>
        <mxCell id="gmoZkzMjBakNwVVPHtwE-9" style="edgeStyle=orthogonalEdgeStyle;rounded=0;orthogonalLoop=1;jettySize=auto;html=1;exitX=0.5;exitY=0;exitDx=0;exitDy=0;entryX=0.5;entryY=1;entryDx=0;entryDy=0;strokeColor=#666666;" edge="1" parent="1" source="Ox8djmFGP4lGGfaMFqNL-7" target="39150e848f15840c-4">
          <mxGeometry relative="1" as="geometry" />
        </mxCell>
        <mxCell id="Ox8djmFGP4lGGfaMFqNL-7" value="应用&lt;div&gt;(server)B&lt;div&gt;端口B&lt;/div&gt;&lt;/div&gt;" style="html=1;whiteSpace=wrap;fillColor=#dae8fc;strokeColor=#6c8ebf;" parent="1" vertex="1">
          <mxGeometry x="480" y="200" width="70" height="50" as="geometry" />
        </mxCell>
        <mxCell id="Ox8djmFGP4lGGfaMFqNL-9" value="应用&lt;div&gt;(server)C&lt;div&gt;端口C&lt;/div&gt;&lt;/div&gt;" style="html=1;whiteSpace=wrap;fillColor=#dae8fc;strokeColor=#6c8ebf;" parent="1" vertex="1">
          <mxGeometry x="574" y="200" width="70" height="50" as="geometry" />
        </mxCell>
        <mxCell id="gmoZkzMjBakNwVVPHtwE-8" style="edgeStyle=orthogonalEdgeStyle;rounded=0;orthogonalLoop=1;jettySize=auto;html=1;exitX=0.5;exitY=0;exitDx=0;exitDy=0;entryX=0.142;entryY=0.983;entryDx=0;entryDy=0;entryPerimeter=0;strokeColor=#666666;" edge="1" parent="1" source="Ox8djmFGP4lGGfaMFqNL-6" target="39150e848f15840c-4">
          <mxGeometry relative="1" as="geometry" />
        </mxCell>
        <mxCell id="gmoZkzMjBakNwVVPHtwE-10" style="edgeStyle=orthogonalEdgeStyle;rounded=0;orthogonalLoop=1;jettySize=auto;html=1;exitX=0.5;exitY=0;exitDx=0;exitDy=0;entryX=0.862;entryY=1.017;entryDx=0;entryDy=0;entryPerimeter=0;strokeColor=#666666;" edge="1" parent="1" source="Ox8djmFGP4lGGfaMFqNL-9" target="39150e848f15840c-4">
          <mxGeometry relative="1" as="geometry" />
        </mxCell>
        <mxCell id="gmoZkzMjBakNwVVPHtwE-15" style="rounded=0;orthogonalLoop=1;jettySize=auto;html=1;exitX=0;exitY=0;exitDx=0;exitDy=70;exitPerimeter=0;entryX=0.5;entryY=1;entryDx=0;entryDy=0;edgeStyle=orthogonalEdgeStyle;strokeColor=#666666;" edge="1" parent="1" source="gmoZkzMjBakNwVVPHtwE-13" target="Ox8djmFGP4lGGfaMFqNL-6">
          <mxGeometry relative="1" as="geometry" />
        </mxCell>
        <mxCell id="gmoZkzMjBakNwVVPHtwE-16" style="edgeStyle=orthogonalEdgeStyle;rounded=0;orthogonalLoop=1;jettySize=auto;html=1;exitX=0;exitY=0;exitDx=0;exitDy=70;exitPerimeter=0;entryX=0.5;entryY=1;entryDx=0;entryDy=0;strokeColor=#666666;" edge="1" parent="1" source="gmoZkzMjBakNwVVPHtwE-13" target="Ox8djmFGP4lGGfaMFqNL-7">
          <mxGeometry relative="1" as="geometry" />
        </mxCell>
        <mxCell id="gmoZkzMjBakNwVVPHtwE-17" style="edgeStyle=orthogonalEdgeStyle;rounded=0;orthogonalLoop=1;jettySize=auto;html=1;exitX=0;exitY=0;exitDx=0;exitDy=70;exitPerimeter=0;entryX=0.5;entryY=1;entryDx=0;entryDy=0;startArrow=classicThin;startFill=1;strokeColor=#666666;" edge="1" parent="1" source="gmoZkzMjBakNwVVPHtwE-13" target="Ox8djmFGP4lGGfaMFqNL-9">
          <mxGeometry relative="1" as="geometry" />
        </mxCell>
        <mxCell id="gmoZkzMjBakNwVVPHtwE-36" style="edgeStyle=orthogonalEdgeStyle;rounded=0;orthogonalLoop=1;jettySize=auto;html=1;exitX=0;exitY=0;exitDx=50;exitDy=80;exitPerimeter=0;startArrow=classic;startFill=1;endArrow=classic;endFill=1;dashed=1;" edge="1" parent="1" source="gmoZkzMjBakNwVVPHtwE-13" target="gmoZkzMjBakNwVVPHtwE-33">
          <mxGeometry relative="1" as="geometry" />
        </mxCell>
        <mxCell id="gmoZkzMjBakNwVVPHtwE-13" value="dlt协议栈 (Socket/DDS)" style="verticalAlign=middle;align=center;spacingTop=8;spacingLeft=2;spacingRight=12;shape=cube;size=10;direction=south;fontStyle=4;html=1;whiteSpace=wrap;fillColor=#e1d5e7;strokeColor=#9673a6;" vertex="1" parent="1">
          <mxGeometry x="560" y="305" width="150" height="50" as="geometry" />
        </mxCell>
        <mxCell id="gmoZkzMjBakNwVVPHtwE-14" style="edgeStyle=orthogonalEdgeStyle;rounded=0;orthogonalLoop=1;jettySize=auto;html=1;exitX=0;exitY=0;exitDx=340;exitDy=10;exitPerimeter=0;entryX=1;entryY=0.042;entryDx=0;entryDy=0;entryPerimeter=0;" edge="1" parent="1" source="39150e848f15840c-1" target="39150e848f15840c-1">
          <mxGeometry relative="1" as="geometry" />
        </mxCell>
        <mxCell id="gmoZkzMjBakNwVVPHtwE-19" style="edgeStyle=orthogonalEdgeStyle;rounded=0;orthogonalLoop=1;jettySize=auto;html=1;exitX=1;exitY=0.5;exitDx=0;exitDy=0;entryX=0;entryY=0;entryDx=30;entryDy=150;entryPerimeter=0;strokeColor=#666666;" edge="1" parent="1" source="Ox8djmFGP4lGGfaMFqNL-20" target="gmoZkzMjBakNwVVPHtwE-13">
          <mxGeometry relative="1" as="geometry" />
        </mxCell>
        <mxCell id="gmoZkzMjBakNwVVPHtwE-33" value="dlt协议栈 (Socket/DDS)" style="verticalAlign=middle;align=center;spacingTop=8;spacingLeft=2;spacingRight=12;shape=cube;size=10;direction=south;fontStyle=4;html=1;whiteSpace=wrap;fillColor=#e1d5e7;strokeColor=#9673a6;" vertex="1" parent="1">
          <mxGeometry x="555" y="540" width="150" height="50" as="geometry" />
        </mxCell>
        <mxCell id="gmoZkzMjBakNwVVPHtwE-38" value="Actor" style="shape=umlActor;verticalLabelPosition=bottom;verticalAlign=top;html=1;fontColor=none;noLabel=1;" vertex="1" parent="1">
          <mxGeometry x="220" y="440" width="30" height="60" as="geometry" />
        </mxCell>
      </root>
    </mxGraphModel>
  </diagram>
</mxfile>
